<?xml version="1.0" encoding="UTF-8"?>
<svg xmlns="http://www.w3.org/2000/svg" xmlns:xlink="http://www.w3.org/1999/xlink" width="50px" height="41px" viewBox="0 0 50 41" version="1.1">
<g id="surface1">
<path style=" stroke:none;fill-rule:nonzero;fill:rgb(0%,0%,0%);fill-opacity:1;" d="M 0 0 C 16.5 0 33 0 50 0 C 50 13.53125 50 27.058594 50 41 C 33.5 41 17 41 0 41 C 0 27.46875 0 13.941406 0 0 Z M 0 0 "/>
<path style=" stroke:none;fill-rule:nonzero;fill:rgb(98.823529%,98.823529%,98.823529%);fill-opacity:1;" d="M 25.40625 11.441406 C 26.328125 11.441406 27.246094 11.441406 28.191406 11.441406 C 27.964844 12.132812 27.964844 12.132812 27.863281 12.382812 C 27.839844 12.4375 27.816406 12.492188 27.796875 12.546875 C 27.761719 12.632812 27.761719 12.632812 27.726562 12.71875 C 27.675781 12.839844 27.628906 12.960938 27.582031 13.078125 C 27.558594 13.136719 27.535156 13.195312 27.511719 13.253906 C 27.398438 13.535156 27.292969 13.816406 27.183594 14.097656 C 27.074219 14.386719 26.949219 14.671875 26.828125 14.957031 C 26.757812 15.113281 26.757812 15.113281 26.765625 15.253906 C 26.785156 15.222656 26.804688 15.191406 26.828125 15.160156 C 27.085938 14.761719 27.367188 14.382812 27.652344 14 C 27.96875 13.582031 28.28125 13.160156 28.589844 12.734375 C 28.664062 12.636719 28.738281 12.535156 28.816406 12.4375 C 28.945312 12.261719 28.945312 12.261719 29.03125 12.050781 C 29.167969 11.785156 29.289062 11.59375 29.550781 11.441406 C 30.109375 11.296875 30.714844 11.34375 31.289062 11.359375 C 31.519531 11.363281 31.75 11.363281 31.980469 11.367188 C 32.414062 11.367188 32.851562 11.375 33.285156 11.382812 C 33.785156 11.390625 34.28125 11.398438 34.777344 11.402344 C 35.796875 11.410156 36.820312 11.421875 37.839844 11.441406 C 37.785156 11.742188 37.691406 12.027344 37.589844 12.316406 C 37.570312 12.363281 37.554688 12.414062 37.535156 12.46875 C 37.382812 12.894531 37.226562 13.316406 37.066406 13.738281 C 36.910156 14.152344 36.765625 14.566406 36.617188 14.984375 C 35.585938 14.984375 34.554688 14.984375 33.492188 14.984375 C 33.445312 15.1875 33.402344 15.386719 33.355469 15.597656 C 33.253906 15.832031 33.253906 15.832031 33.152344 16.074219 C 34.136719 16.074219 35.125 16.074219 36.140625 16.074219 C 36.070312 16.429688 35.96875 16.757812 35.851562 17.097656 C 35.832031 17.160156 35.8125 17.21875 35.792969 17.28125 C 35.636719 17.753906 35.449219 18.199219 35.257812 18.660156 C 34.25 18.683594 33.242188 18.707031 32.199219 18.730469 C 32.042969 19.15625 31.886719 19.582031 31.726562 20.023438 C 32.710938 20.023438 33.699219 20.023438 34.714844 20.023438 C 34.625 20.332031 34.535156 20.632812 34.433594 20.9375 C 34.398438 21.046875 34.398438 21.046875 34.363281 21.15625 C 34.34375 21.207031 34.324219 21.261719 34.308594 21.316406 C 34.558594 21.253906 34.8125 21.1875 35.066406 21.121094 C 35.140625 21.101562 35.210938 21.085938 35.285156 21.066406 C 35.355469 21.046875 35.421875 21.03125 35.496094 21.011719 C 35.558594 20.996094 35.621094 20.980469 35.6875 20.960938 C 35.867188 20.910156 36.035156 20.84375 36.210938 20.773438 C 36.375 20.730469 36.539062 20.695312 36.707031 20.65625 C 37.164062 20.554688 37.613281 20.429688 38.058594 20.296875 C 39.007812 20.011719 39.964844 19.761719 40.921875 19.507812 C 41.664062 19.3125 42.398438 19.109375 43.136719 18.894531 C 43.460938 18.800781 43.789062 18.710938 44.117188 18.617188 C 44.171875 18.605469 44.222656 18.589844 44.273438 18.574219 C 44.425781 18.53125 44.578125 18.492188 44.730469 18.449219 C 45.921875 18.140625 45.921875 18.140625 47.089844 17.765625 C 47.285156 17.707031 47.367188 17.703125 47.554688 17.777344 C 47.058594 17.992188 46.566406 18.210938 46.070312 18.429688 C 45.941406 18.488281 45.8125 18.542969 45.683594 18.601562 C 45.539062 18.664062 45.398438 18.726562 45.257812 18.789062 C 45.214844 18.808594 45.171875 18.828125 45.128906 18.84375 C 44.796875 18.992188 44.460938 19.128906 44.128906 19.265625 C 43.953125 19.339844 43.953125 19.339844 43.789062 19.445312 C 43.59375 19.558594 43.402344 19.632812 43.191406 19.710938 C 42.710938 19.894531 42.25 20.089844 41.796875 20.324219 C 41.460938 20.496094 41.117188 20.628906 40.769531 20.761719 C 40.375 20.910156 39.996094 21.085938 39.621094 21.277344 C 39.382812 21.402344 39.140625 21.503906 38.886719 21.597656 C 38.421875 21.773438 37.96875 21.972656 37.511719 22.171875 C 37.441406 22.203125 37.367188 22.238281 37.292969 22.269531 C 36.984375 22.40625 36.679688 22.542969 36.382812 22.695312 C 36.183594 22.792969 35.996094 22.875 35.789062 22.941406 C 35.519531 23.039062 35.257812 23.148438 35 23.269531 C 34.53125 23.492188 34.050781 23.6875 33.566406 23.882812 C 33.136719 24.058594 32.710938 24.246094 32.292969 24.449219 C 32.132812 24.519531 32.132812 24.519531 31.929688 24.519531 C 31.929688 24.5625 31.929688 24.609375 31.929688 24.65625 C 31.867188 24.675781 31.808594 24.699219 31.742188 24.71875 C 31.125 24.945312 30.523438 25.203125 29.925781 25.480469 C 29.050781 25.882812 28.164062 26.257812 27.273438 26.625 C 26.898438 26.785156 26.527344 26.953125 26.164062 27.140625 C 25.289062 27.582031 25.289062 27.582031 24.863281 27.582031 C 24.863281 27.628906 24.863281 27.671875 24.863281 27.71875 C 24.722656 27.777344 24.578125 27.832031 24.433594 27.890625 C 24.355469 27.921875 24.277344 27.953125 24.195312 27.984375 C 23.980469 28.058594 23.980469 28.058594 23.777344 28.058594 C 23.777344 28.105469 23.777344 28.148438 23.777344 28.195312 C 23.671875 28.234375 23.671875 28.234375 23.566406 28.269531 C 23.050781 28.457031 22.5625 28.660156 22.074219 28.914062 C 21.796875 29.050781 21.515625 29.15625 21.226562 29.261719 C 20.921875 29.382812 20.621094 29.515625 20.320312 29.648438 C 20.007812 29.789062 19.695312 29.914062 19.378906 30.039062 C 18.996094 30.1875 18.632812 30.363281 18.269531 30.550781 C 18 30.683594 17.71875 30.789062 17.433594 30.894531 C 17.183594 30.988281 16.941406 31.09375 16.695312 31.203125 C 16.597656 31.246094 16.503906 31.289062 16.40625 31.332031 C 16.355469 31.351562 16.304688 31.375 16.253906 31.398438 C 15.832031 31.582031 15.410156 31.765625 14.988281 31.949219 C 14.878906 31.996094 14.769531 32.042969 14.660156 32.089844 C 13.910156 32.417969 13.164062 32.671875 12.367188 32.863281 C 12.230469 32.894531 12.09375 32.929688 11.960938 32.964844 C 10.402344 33.34375 8.429688 33.273438 7 32.484375 C 6.042969 31.859375 5.4375 30.953125 5.144531 29.847656 C 4.851562 28.355469 5.222656 26.828125 5.84375 25.472656 C 5.867188 25.414062 5.894531 25.355469 5.921875 25.296875 C 6.738281 23.484375 7.808594 21.859375 9.035156 20.296875 C 9.074219 20.242188 9.113281 20.191406 9.15625 20.136719 C 9.507812 19.675781 9.882812 19.238281 10.257812 18.796875 C 10.28125 18.84375 10.304688 18.886719 10.324219 18.933594 C 10.269531 19.070312 10.269531 19.070312 10.175781 19.234375 C 9.402344 20.746094 9.132812 22.648438 9.625 24.292969 C 10.003906 25.238281 10.699219 25.882812 11.621094 26.28125 C 12.839844 26.738281 14.078125 26.71875 15.324219 26.410156 C 15.425781 26.382812 15.523438 26.359375 15.625 26.335938 C 15.964844 26.253906 16.304688 26.167969 16.644531 26.085938 C 16.710938 26.070312 16.773438 26.050781 16.839844 26.035156 C 17.332031 25.914062 17.824219 25.789062 18.316406 25.664062 C 18.417969 25.636719 18.417969 25.636719 18.519531 25.613281 C 19.210938 25.433594 19.898438 25.253906 20.582031 25.046875 C 20.984375 24.925781 21.390625 24.824219 21.800781 24.722656 C 22.3125 24.597656 22.824219 24.460938 23.335938 24.328125 C 23.390625 24.3125 23.449219 24.296875 23.503906 24.28125 C 24.257812 24.082031 25.007812 23.878906 25.753906 23.65625 C 26.648438 23.386719 27.554688 23.160156 28.460938 22.933594 C 28.796875 22.851562 29.136719 22.765625 29.484375 22.679688 C 28.09375 22.65625 26.703125 22.632812 25.273438 22.609375 C 25.273438 21.355469 25.277344 20.117188 25.339844 18.867188 C 25.113281 19.421875 24.894531 19.980469 24.6875 20.542969 C 24.519531 20.996094 24.339844 21.441406 24.160156 21.886719 C 24.136719 21.941406 24.113281 21.996094 24.09375 22.050781 C 24.074219 22.101562 24.050781 22.148438 24.03125 22.199219 C 23.972656 22.359375 23.972656 22.359375 23.914062 22.609375 C 23.015625 22.609375 22.121094 22.609375 21.195312 22.609375 C 21.246094 22.300781 21.285156 22.125 21.40625 21.855469 C 21.570312 21.480469 21.707031 21.097656 21.835938 20.710938 C 22 20.230469 22.183594 19.765625 22.386719 19.300781 C 22.621094 18.757812 22.8125 18.199219 23.015625 17.644531 C 23.046875 17.558594 23.046875 17.558594 23.078125 17.472656 C 23.117188 17.363281 23.15625 17.253906 23.199219 17.144531 C 23.292969 16.886719 23.390625 16.632812 23.503906 16.382812 C 23.648438 16.0625 23.765625 15.730469 23.878906 15.394531 C 24.058594 14.871094 24.25 14.359375 24.464844 13.847656 C 24.65625 13.398438 24.828125 12.941406 24.984375 12.480469 C 25.105469 12.121094 25.253906 11.792969 25.40625 11.441406 Z M 25.40625 11.441406 "/>
<path style=" stroke:none;fill-rule:nonzero;fill:rgb(98.431373%,98.431373%,98.431373%);fill-opacity:1;" d="M 14.742188 11.441406 C 15.773438 11.441406 16.804688 11.441406 17.867188 11.441406 C 17.867188 12.441406 17.867188 12.441406 17.84375 12.835938 C 17.835938 12.921875 17.832031 13.007812 17.824219 13.097656 C 17.816406 13.230469 17.816406 13.230469 17.808594 13.367188 C 17.804688 13.433594 17.804688 13.433594 17.796875 13.503906 C 17.757812 14.128906 17.707031 14.746094 17.621094 15.363281 C 17.59375 15.625 17.589844 15.878906 17.59375 16.140625 C 17.605469 16.105469 17.621094 16.070312 17.632812 16.035156 C 17.691406 15.863281 17.75 15.695312 17.808594 15.527344 C 17.828125 15.472656 17.847656 15.417969 17.867188 15.359375 C 18.042969 14.847656 18.234375 14.339844 18.425781 13.835938 C 18.496094 13.640625 18.566406 13.449219 18.640625 13.253906 C 18.710938 13.0625 18.78125 12.871094 18.855469 12.679688 C 18.890625 12.582031 18.925781 12.484375 18.960938 12.386719 C 19.015625 12.242188 19.070312 12.097656 19.121094 11.953125 C 19.152344 11.871094 19.183594 11.785156 19.21875 11.699219 C 19.292969 11.511719 19.292969 11.511719 19.363281 11.441406 C 19.546875 11.4375 19.730469 11.433594 19.917969 11.433594 C 19.972656 11.433594 20.027344 11.433594 20.085938 11.433594 C 20.265625 11.4375 20.445312 11.4375 20.621094 11.4375 C 20.742188 11.4375 20.863281 11.4375 20.984375 11.4375 C 21.28125 11.4375 21.578125 11.441406 21.875 11.441406 C 21.835938 11.742188 21.757812 12.003906 21.648438 12.285156 C 21.601562 12.410156 21.601562 12.410156 21.550781 12.535156 C 21.535156 12.578125 21.519531 12.621094 21.503906 12.667969 C 21.414062 12.890625 21.332031 13.113281 21.246094 13.335938 C 21.226562 13.378906 21.210938 13.421875 21.195312 13.464844 C 21.046875 13.855469 20.917969 14.246094 20.789062 14.640625 C 20.699219 14.90625 20.589844 15.164062 20.480469 15.421875 C 20.1875 16.140625 19.925781 16.875 19.6875 17.613281 C 19.582031 17.941406 19.453125 18.257812 19.316406 18.578125 C 19.023438 19.289062 18.773438 20.015625 18.519531 20.742188 C 18.375 21.164062 18.222656 21.582031 18.0625 21.996094 C 17.984375 22.203125 17.921875 22.398438 17.867188 22.609375 C 16.925781 22.609375 15.984375 22.609375 15.011719 22.609375 C 15.011719 22.125 15.015625 21.652344 15.054688 21.167969 C 15.058594 21.082031 15.058594 21.082031 15.066406 20.996094 C 15.074219 20.878906 15.082031 20.757812 15.09375 20.636719 C 15.117188 20.324219 15.140625 20.007812 15.164062 19.691406 C 15.167969 19.628906 15.171875 19.5625 15.175781 19.5 C 15.222656 18.875 15.261719 18.253906 15.296875 17.632812 C 15.300781 17.582031 15.304688 17.535156 15.308594 17.484375 C 15.324219 17.21875 15.339844 16.953125 15.351562 16.6875 C 15.328125 16.773438 15.328125 16.773438 15.300781 16.863281 C 15.066406 17.636719 15.066406 17.636719 14.90625 18 C 14.773438 18.308594 14.652344 18.621094 14.539062 18.933594 C 14.511719 19.003906 14.484375 19.078125 14.457031 19.152344 C 14.378906 19.363281 14.300781 19.578125 14.222656 19.792969 C 14.191406 19.878906 14.15625 19.96875 14.125 20.058594 C 13.917969 20.617188 13.71875 21.179688 13.539062 21.753906 C 13.433594 22.042969 13.304688 22.328125 13.179688 22.609375 C 12.351562 22.609375 11.519531 22.609375 10.664062 22.609375 C 10.71875 22.289062 10.785156 22.035156 10.894531 21.734375 C 10.921875 21.65625 10.953125 21.578125 10.980469 21.496094 C 11.109375 21.148438 11.242188 20.800781 11.371094 20.453125 C 11.621094 19.789062 11.863281 19.125 12.105469 18.457031 C 12.351562 17.769531 12.601562 17.085938 12.863281 16.40625 C 13.015625 16.015625 13.15625 15.625 13.292969 15.234375 C 13.40625 14.917969 13.527344 14.601562 13.644531 14.285156 C 13.738281 14.035156 13.832031 13.785156 13.921875 13.53125 C 13.941406 13.472656 13.964844 13.417969 13.984375 13.355469 C 14.03125 13.234375 14.074219 13.113281 14.117188 12.992188 C 14.179688 12.820312 14.242188 12.648438 14.304688 12.476562 C 14.324219 12.421875 14.34375 12.367188 14.363281 12.308594 C 14.394531 12.230469 14.394531 12.230469 14.421875 12.148438 C 14.449219 12.078125 14.449219 12.078125 14.476562 12.003906 C 14.554688 11.8125 14.648438 11.628906 14.742188 11.441406 Z M 14.742188 11.441406 "/>
<path style=" stroke:none;fill-rule:nonzero;fill:rgb(98.431373%,98.431373%,98.431373%);fill-opacity:1;" d="M 22.148438 11.441406 C 23.042969 11.441406 23.941406 11.441406 24.863281 11.441406 C 24.808594 11.726562 24.734375 11.988281 24.644531 12.261719 C 24.617188 12.34375 24.589844 12.429688 24.5625 12.511719 C 24.484375 12.738281 24.394531 12.953125 24.300781 13.171875 C 24.109375 13.632812 23.933594 14.097656 23.757812 14.5625 C 23.726562 14.652344 23.691406 14.742188 23.660156 14.832031 C 23.589844 15.015625 23.519531 15.203125 23.449219 15.386719 C 23.363281 15.621094 23.273438 15.855469 23.1875 16.085938 C 22.703125 17.371094 22.703125 17.371094 22.230469 18.660156 C 22.101562 19.007812 21.972656 19.351562 21.835938 19.695312 C 21.816406 19.75 21.796875 19.800781 21.773438 19.855469 C 21.753906 19.902344 21.738281 19.949219 21.71875 20 C 21.441406 20.707031 21.179688 21.421875 20.929688 22.140625 C 20.855469 22.339844 20.855469 22.339844 20.71875 22.609375 C 19.824219 22.609375 18.925781 22.609375 18.003906 22.609375 C 18.15625 21.996094 18.15625 21.996094 18.261719 21.714844 C 18.285156 21.648438 18.308594 21.585938 18.332031 21.519531 C 18.445312 21.230469 18.554688 20.9375 18.667969 20.648438 C 18.742188 20.453125 18.816406 20.253906 18.886719 20.058594 C 19.011719 19.703125 19.148438 19.351562 19.28125 19 C 19.34375 18.839844 19.40625 18.679688 19.464844 18.519531 C 19.542969 18.300781 19.636719 18.085938 19.726562 17.871094 C 19.886719 17.488281 20.027344 17.105469 20.164062 16.714844 C 20.308594 16.296875 20.46875 15.882812 20.636719 15.472656 C 20.875 14.886719 21.09375 14.292969 21.300781 13.691406 C 21.460938 13.234375 21.628906 12.78125 21.808594 12.328125 C 21.84375 12.226562 21.882812 12.121094 21.921875 12.019531 C 21.996094 11.828125 22.070312 11.632812 22.148438 11.441406 Z M 22.148438 11.441406 "/>
<path style=" stroke:none;fill-rule:nonzero;fill:rgb(2.745098%,2.745098%,2.745098%);fill-opacity:1;" d="M 31.65625 12.734375 C 31.75 13.011719 31.667969 13.117188 31.554688 13.382812 C 31.515625 13.476562 31.480469 13.566406 31.441406 13.660156 C 31.421875 13.710938 31.398438 13.757812 31.378906 13.808594 C 31.277344 14.066406 31.179688 14.328125 31.085938 14.585938 C 31.066406 14.640625 31.046875 14.695312 31.023438 14.75 C 30.746094 15.519531 30.472656 16.292969 30.21875 17.070312 C 30.121094 17.359375 30.015625 17.644531 29.898438 17.925781 C 29.589844 18.695312 29.320312 19.476562 29.0625 20.265625 C 28.722656 21.308594 28.722656 21.308594 28.53125 21.65625 C 28.511719 21.65625 28.488281 21.65625 28.464844 21.65625 C 28.4375 21.144531 28.410156 20.632812 28.386719 20.121094 C 28.371094 19.882812 28.359375 19.644531 28.347656 19.40625 C 28.332031 19.132812 28.320312 18.859375 28.304688 18.585938 C 28.300781 18.5 28.296875 18.417969 28.292969 18.328125 C 28.226562 17.019531 28.226562 17.019531 28.363281 16.78125 C 28.410156 16.734375 28.457031 16.691406 28.503906 16.648438 C 28.554688 16.597656 28.601562 16.546875 28.652344 16.496094 C 28.703125 16.445312 28.753906 16.398438 28.804688 16.34375 C 28.882812 16.246094 28.960938 16.148438 29.039062 16.046875 C 29.210938 15.820312 29.386719 15.597656 29.570312 15.378906 C 29.835938 15.050781 30.097656 14.71875 30.359375 14.382812 C 30.558594 14.128906 30.761719 13.878906 30.964844 13.628906 C 31.207031 13.339844 31.433594 13.039062 31.65625 12.734375 Z M 31.65625 12.734375 "/>
<path style=" stroke:none;fill-rule:nonzero;fill:rgb(7.058824%,7.058824%,7.058824%);fill-opacity:1;" d="M 24.863281 11.441406 C 25.183594 11.597656 25.183594 11.597656 25.269531 11.804688 C 25.273438 12.03125 25.214844 12.167969 25.125 12.375 C 25.089844 12.445312 25.058594 12.519531 25.027344 12.59375 C 24.996094 12.660156 24.964844 12.730469 24.933594 12.804688 C 24.78125 13.160156 24.648438 13.519531 24.527344 13.886719 C 24.414062 14.234375 24.28125 14.570312 24.136719 14.90625 C 24.042969 15.132812 23.960938 15.363281 23.878906 15.597656 C 23.753906 15.957031 23.613281 16.308594 23.464844 16.664062 C 23.347656 16.945312 23.234375 17.234375 23.125 17.519531 C 23.105469 17.570312 23.085938 17.621094 23.0625 17.675781 C 22.9375 18.003906 22.8125 18.332031 22.691406 18.660156 C 22.621094 18.617188 22.554688 18.570312 22.488281 18.523438 C 22.339844 18.546875 22.339844 18.546875 22.214844 18.59375 C 22.359375 18.058594 22.554688 17.542969 22.753906 17.027344 C 22.851562 16.773438 22.949219 16.519531 23.046875 16.265625 C 23.066406 16.210938 23.085938 16.160156 23.109375 16.105469 C 23.402344 15.332031 23.691406 14.558594 23.980469 13.785156 C 24.160156 13.296875 24.34375 12.808594 24.539062 12.324219 C 24.613281 12.144531 24.679688 11.957031 24.746094 11.773438 C 24.769531 11.710938 24.789062 11.648438 24.8125 11.582031 C 24.832031 11.535156 24.847656 11.488281 24.863281 11.441406 Z M 24.863281 11.441406 "/>
<path style=" stroke:none;fill-rule:nonzero;fill:rgb(17.647059%,17.647059%,17.647059%);fill-opacity:1;" d="M 22.011719 11.78125 C 21.984375 12.171875 21.859375 12.480469 21.707031 12.835938 C 21.5 13.316406 21.316406 13.8125 21.128906 14.300781 C 21.109375 14.351562 21.089844 14.398438 21.070312 14.449219 C 20.882812 14.9375 20.703125 15.433594 20.542969 15.933594 C 20.4375 16.253906 20.320312 16.558594 20.179688 16.863281 C 20.054688 17.152344 19.957031 17.445312 19.855469 17.738281 C 19.703125 18.167969 19.539062 18.59375 19.367188 19.015625 C 19.167969 19.511719 18.976562 20.007812 18.8125 20.519531 C 18.722656 20.785156 18.613281 21.039062 18.503906 21.296875 C 18.324219 21.730469 18.164062 22.171875 18.003906 22.609375 C 17.925781 22.503906 17.925781 22.503906 17.867188 22.339844 C 17.910156 22.171875 17.960938 22.027344 18.027344 21.871094 C 18.066406 21.773438 18.105469 21.675781 18.144531 21.578125 C 18.164062 21.523438 18.1875 21.472656 18.207031 21.417969 C 18.328125 21.117188 18.4375 20.808594 18.546875 20.503906 C 18.570312 20.441406 18.59375 20.378906 18.617188 20.3125 C 18.742188 19.964844 18.867188 19.613281 18.988281 19.265625 C 19.121094 18.878906 19.257812 18.503906 19.429688 18.136719 C 19.503906 17.96875 19.558594 17.800781 19.617188 17.625 C 19.792969 17.085938 19.988281 16.554688 20.179688 16.023438 C 20.21875 15.921875 20.253906 15.820312 20.289062 15.722656 C 20.324219 15.625 20.359375 15.527344 20.394531 15.429688 C 20.410156 15.386719 20.425781 15.34375 20.445312 15.296875 C 20.597656 14.878906 20.753906 14.460938 20.914062 14.042969 C 20.933594 13.984375 20.957031 13.929688 20.980469 13.871094 C 21.023438 13.746094 21.070312 13.625 21.117188 13.5 C 21.230469 13.203125 21.34375 12.90625 21.453125 12.605469 C 21.472656 12.558594 21.488281 12.507812 21.507812 12.453125 C 21.542969 12.359375 21.578125 12.265625 21.609375 12.171875 C 21.75 11.78125 21.75 11.78125 22.011719 11.78125 Z M 22.011719 11.78125 "/>
<path style=" stroke:none;fill-rule:nonzero;fill:rgb(13.725491%,13.725491%,13.725491%);fill-opacity:1;" d="M 22.011719 11.78125 C 21.984375 12.171875 21.859375 12.480469 21.707031 12.835938 C 21.589844 13.113281 21.476562 13.390625 21.371094 13.671875 C 21.347656 13.722656 21.328125 13.777344 21.308594 13.828125 C 21.171875 14.179688 21.042969 14.53125 20.910156 14.886719 C 20.769531 15.265625 20.617188 15.636719 20.449219 16.003906 C 20.402344 16.003906 20.359375 16.003906 20.3125 16.003906 C 20.339844 15.539062 20.488281 15.15625 20.660156 14.726562 C 20.785156 14.410156 20.902344 14.089844 21.023438 13.769531 C 21.0625 13.664062 21.0625 13.664062 21.101562 13.554688 C 21.222656 13.238281 21.339844 12.917969 21.457031 12.59375 C 21.484375 12.519531 21.484375 12.519531 21.511719 12.441406 C 21.546875 12.347656 21.582031 12.253906 21.613281 12.160156 C 21.75 11.78125 21.75 11.78125 22.011719 11.78125 Z M 22.011719 11.78125 "/>
<path style=" stroke:none;fill-rule:nonzero;fill:rgb(14.509805%,14.509805%,14.509805%);fill-opacity:1;" d="M 20.246094 15.867188 C 20.265625 15.914062 20.289062 15.957031 20.3125 16.003906 C 20.355469 16.003906 20.402344 16.003906 20.449219 16.003906 C 20.417969 16.320312 20.320312 16.5625 20.1875 16.84375 C 20.058594 17.140625 19.957031 17.445312 19.855469 17.753906 C 19.769531 17.972656 19.675781 18.179688 19.566406 18.390625 C 19.542969 18.390625 19.519531 18.390625 19.496094 18.390625 C 19.511719 17.796875 19.695312 17.292969 19.910156 16.746094 C 19.941406 16.660156 19.972656 16.574219 20.007812 16.488281 C 20.085938 16.28125 20.164062 16.074219 20.246094 15.867188 Z M 20.246094 15.867188 "/>
<path style=" stroke:none;fill-rule:nonzero;fill:rgb(15.294118%,15.294118%,15.294118%);fill-opacity:1;" d="M 25.273438 22.609375 C 26.683594 22.609375 28.097656 22.609375 29.550781 22.609375 C 29.527344 22.65625 29.507812 22.703125 29.484375 22.746094 C 28.964844 22.910156 28.964844 22.910156 28.667969 22.816406 C 28.691406 22.792969 28.714844 22.769531 28.738281 22.746094 C 27.59375 22.726562 26.449219 22.703125 25.273438 22.679688 C 25.273438 22.65625 25.273438 22.632812 25.273438 22.609375 Z M 25.273438 22.609375 "/>
<path style=" stroke:none;fill-rule:nonzero;fill:rgb(84.705883%,84.705883%,84.705883%);fill-opacity:1;" d="M 10.257812 18.796875 C 10.28125 18.84375 10.304688 18.886719 10.324219 18.933594 C 10.261719 19.089844 10.261719 19.089844 10.167969 19.269531 C 10.125 19.359375 10.125 19.359375 10.078125 19.449219 C 9.988281 19.613281 9.988281 19.613281 9.851562 19.820312 C 9.804688 19.773438 9.761719 19.730469 9.714844 19.683594 C 9.699219 19.71875 9.683594 19.757812 9.667969 19.796875 C 9.554688 19.996094 9.402344 20.132812 9.238281 20.296875 C 9.214844 20.34375 9.191406 20.390625 9.167969 20.441406 C 9.085938 20.601562 8.980469 20.671875 8.832031 20.773438 C 8.785156 20.75 8.742188 20.726562 8.695312 20.703125 C 9.207031 20.0625 9.71875 19.417969 10.257812 18.796875 Z M 10.257812 18.796875 "/>
<path style=" stroke:none;fill-rule:nonzero;fill:rgb(8.627451%,8.627451%,8.627451%);fill-opacity:1;" d="M 22.011719 11.78125 C 21.976562 12.269531 21.816406 12.863281 21.46875 13.210938 C 21.421875 13.210938 21.378906 13.210938 21.332031 13.210938 C 21.375 12.894531 21.457031 12.609375 21.566406 12.304688 C 21.59375 12.222656 21.625 12.136719 21.652344 12.050781 C 21.746094 11.828125 21.773438 11.78125 22.011719 11.78125 Z M 22.011719 11.78125 "/>
<path style=" stroke:none;fill-rule:nonzero;fill:rgb(16.470589%,16.470589%,16.470589%);fill-opacity:1;" d="M 20.789062 14.507812 C 20.832031 14.507812 20.878906 14.507812 20.925781 14.507812 C 20.894531 15.011719 20.746094 15.484375 20.515625 15.9375 C 20.449219 15.960938 20.382812 15.980469 20.3125 16.003906 C 20.339844 15.546875 20.453125 14.84375 20.789062 14.507812 Z M 20.789062 14.507812 "/>
<path style=" stroke:none;fill-rule:nonzero;fill:rgb(88.235295%,88.235295%,88.235295%);fill-opacity:1;" d="M 47.554688 17.777344 C 46.78125 18.113281 46.78125 18.113281 45.992188 18.457031 C 45.96875 18.410156 45.945312 18.367188 45.925781 18.320312 C 45.785156 18.242188 45.785156 18.242188 45.652344 18.183594 C 45.734375 18.160156 45.820312 18.136719 45.90625 18.113281 C 46.015625 18.085938 46.128906 18.054688 46.238281 18.023438 C 46.292969 18.007812 46.347656 17.992188 46.40625 17.976562 C 46.457031 17.960938 46.511719 17.945312 46.566406 17.933594 C 46.648438 17.910156 46.648438 17.910156 46.726562 17.886719 C 46.855469 17.851562 46.976562 17.804688 47.101562 17.761719 C 47.28125 17.707031 47.28125 17.707031 47.554688 17.777344 Z M 47.554688 17.777344 "/>
<path style=" stroke:none;fill-rule:nonzero;fill:rgb(15.294118%,15.294118%,15.294118%);fill-opacity:1;" d="M 27.039062 14.300781 C 27.148438 14.324219 27.261719 14.347656 27.378906 14.371094 C 27.1875 14.699219 26.976562 15.011719 26.765625 15.324219 C 26.675781 15.050781 26.75 14.957031 26.863281 14.699219 C 26.894531 14.625 26.929688 14.550781 26.960938 14.472656 C 26.988281 14.417969 27.011719 14.359375 27.039062 14.300781 Z M 27.039062 14.300781 "/>
<path style=" stroke:none;fill-rule:nonzero;fill:rgb(21.960784%,21.960784%,21.960784%);fill-opacity:1;" d="M 18.207031 21.386719 C 18.25 21.429688 18.296875 21.476562 18.34375 21.523438 C 18.324219 21.910156 18.152344 22.257812 18.003906 22.609375 C 17.925781 22.507812 17.925781 22.507812 17.867188 22.339844 C 17.914062 22.164062 17.960938 22.011719 18.027344 21.84375 C 18.046875 21.800781 18.0625 21.757812 18.078125 21.710938 C 18.121094 21.601562 18.164062 21.492188 18.207031 21.386719 Z M 18.207031 21.386719 "/>
<path style=" stroke:none;fill-rule:nonzero;fill:rgb(21.568628%,21.568628%,21.568628%);fill-opacity:1;" d="M 17.59375 14.984375 C 17.617188 14.984375 17.640625 14.984375 17.664062 14.984375 C 17.675781 15.066406 17.675781 15.066406 17.6875 15.148438 C 17.703125 15.207031 17.714844 15.265625 17.730469 15.324219 C 17.777344 15.347656 17.820312 15.367188 17.867188 15.390625 C 17.835938 15.515625 17.804688 15.636719 17.773438 15.757812 C 17.757812 15.824219 17.738281 15.894531 17.722656 15.964844 C 17.664062 16.140625 17.664062 16.140625 17.527344 16.277344 C 17.519531 15.839844 17.539062 15.417969 17.59375 14.984375 Z M 17.59375 14.984375 "/>
<path style=" stroke:none;fill-rule:nonzero;fill:rgb(18.82353%,18.82353%,18.82353%);fill-opacity:1;" d="M 15.351562 16.617188 C 15.375 16.617188 15.398438 16.617188 15.421875 16.617188 C 15.398438 17.066406 15.375 17.515625 15.351562 17.980469 C 15.332031 17.980469 15.308594 17.980469 15.285156 17.980469 C 15.261719 17.777344 15.242188 17.574219 15.21875 17.367188 C 15.148438 17.402344 15.148438 17.402344 15.082031 17.433594 C 15.113281 17.3125 15.144531 17.1875 15.179688 17.066406 C 15.199219 16.996094 15.214844 16.925781 15.234375 16.855469 C 15.285156 16.6875 15.285156 16.6875 15.351562 16.617188 Z M 15.351562 16.617188 "/>
<path style=" stroke:none;fill-rule:nonzero;fill:rgb(12.54902%,12.54902%,12.54902%);fill-opacity:1;" d="M 18.613281 20.5 C 18.710938 20.757812 18.648438 20.914062 18.550781 21.164062 C 18.523438 21.230469 18.5 21.296875 18.472656 21.367188 C 18.453125 21.417969 18.429688 21.46875 18.410156 21.523438 C 18.367188 21.523438 18.320312 21.523438 18.273438 21.523438 C 18.3125 21.207031 18.382812 20.734375 18.613281 20.5 Z M 18.613281 20.5 "/>
<path style=" stroke:none;fill-rule:nonzero;fill:rgb(23.137255%,23.137255%,23.137255%);fill-opacity:1;" d="M 19.429688 18.046875 C 19.453125 18.046875 19.472656 18.046875 19.496094 18.046875 C 19.589844 18.460938 19.53125 18.683594 19.363281 19.070312 C 19.292969 19.023438 19.226562 18.980469 19.15625 18.933594 C 19.191406 18.824219 19.222656 18.714844 19.253906 18.605469 C 19.273438 18.546875 19.292969 18.484375 19.308594 18.421875 C 19.347656 18.296875 19.386719 18.171875 19.429688 18.046875 Z M 19.429688 18.046875 "/>
<path style=" stroke:none;fill-rule:nonzero;fill:rgb(28.235295%,28.235295%,28.235295%);fill-opacity:1;" d="M 31.65625 12.734375 C 31.742188 12.992188 31.691406 13.078125 31.59375 13.328125 C 31.566406 13.394531 31.542969 13.464844 31.515625 13.53125 C 31.496094 13.585938 31.476562 13.636719 31.453125 13.6875 C 31.433594 13.644531 31.414062 13.601562 31.394531 13.558594 C 31.328125 13.40625 31.328125 13.40625 31.183594 13.347656 C 31.339844 13.148438 31.496094 12.945312 31.65625 12.734375 Z M 31.65625 12.734375 "/>
<path style=" stroke:none;fill-rule:nonzero;fill:rgb(11.764706%,11.764706%,11.764706%);fill-opacity:1;" d="M 19.226562 18.867188 C 19.289062 19.039062 19.300781 19.121094 19.242188 19.296875 C 19.214844 19.351562 19.1875 19.40625 19.160156 19.460938 C 19.125 19.542969 19.125 19.542969 19.082031 19.625 C 19.0625 19.667969 19.042969 19.707031 19.023438 19.75 C 19 19.75 18.976562 19.75 18.953125 19.75 C 18.996094 19.097656 18.996094 19.097656 19.226562 18.867188 Z M 19.226562 18.867188 "/>
<path style=" stroke:none;fill-rule:nonzero;fill:rgb(22.745098%,22.745098%,22.745098%);fill-opacity:1;" d="M 20.246094 15.867188 C 20.265625 15.914062 20.289062 15.957031 20.3125 16.003906 C 20.355469 16.003906 20.402344 16.003906 20.449219 16.003906 C 20.4375 16.199219 20.4375 16.199219 20.378906 16.414062 C 20.207031 16.507812 20.207031 16.507812 20.039062 16.550781 C 20.109375 16.324219 20.175781 16.101562 20.246094 15.867188 Z M 20.246094 15.867188 "/>
<path style=" stroke:none;fill-rule:nonzero;fill:rgb(17.254902%,17.254902%,17.254902%);fill-opacity:1;" d="M 28.667969 20.839844 C 28.6875 21.425781 28.6875 21.425781 28.53125 21.65625 C 28.511719 21.65625 28.488281 21.65625 28.464844 21.65625 C 28.464844 21.410156 28.464844 21.164062 28.464844 20.910156 C 28.601562 20.839844 28.601562 20.839844 28.667969 20.839844 Z M 28.667969 20.839844 "/>
<path style=" stroke:none;fill-rule:nonzero;fill:rgb(85.882354%,85.882354%,85.882354%);fill-opacity:1;" d="M 46.261719 18.183594 C 46.285156 18.230469 46.308594 18.273438 46.332031 18.320312 C 46.195312 18.367188 46.0625 18.410156 45.925781 18.457031 C 45.925781 18.410156 45.925781 18.367188 45.925781 18.320312 C 45.835938 18.277344 45.746094 18.230469 45.652344 18.183594 C 45.878906 18.109375 46.035156 18.117188 46.261719 18.183594 Z M 46.261719 18.183594 "/>
<path style=" stroke:none;fill-rule:nonzero;fill:rgb(13.333334%,13.333334%,13.333334%);fill-opacity:1;" d="M 22.011719 11.78125 C 21.992188 11.941406 21.96875 12.101562 21.941406 12.257812 C 21.875 12.292969 21.875 12.292969 21.808594 12.328125 C 21.808594 12.261719 21.808594 12.191406 21.808594 12.121094 C 21.761719 12.121094 21.71875 12.121094 21.671875 12.121094 C 21.695312 11.992188 21.695312 11.992188 21.738281 11.851562 C 21.875 11.78125 21.875 11.78125 22.011719 11.78125 Z M 22.011719 11.78125 "/>
<path style=" stroke:none;fill-rule:nonzero;fill:rgb(24.705882%,24.705882%,24.705882%);fill-opacity:1;" d="M 25.339844 18.730469 C 25.363281 18.730469 25.382812 18.730469 25.40625 18.730469 C 25.40625 18.976562 25.40625 19.222656 25.40625 19.476562 C 25.363281 19.410156 25.316406 19.34375 25.273438 19.273438 C 25.203125 19.308594 25.203125 19.308594 25.136719 19.34375 C 25.203125 19.140625 25.269531 18.9375 25.339844 18.730469 Z M 25.339844 18.730469 "/>
<path style=" stroke:none;fill-rule:nonzero;fill:rgb(70.588237%,70.588237%,70.588237%);fill-opacity:1;" d="M 47.554688 17.777344 C 47.457031 17.824219 47.359375 17.871094 47.261719 17.917969 C 47.179688 17.957031 47.179688 17.957031 47.097656 17.996094 C 46.941406 18.046875 46.941406 18.046875 46.738281 17.980469 C 46.980469 17.738281 47.234375 17.675781 47.554688 17.777344 Z M 47.554688 17.777344 "/>
<path style=" stroke:none;fill-rule:nonzero;fill:rgb(7.450981%,7.450981%,7.450981%);fill-opacity:1;" d="M 20.789062 14.507812 C 20.832031 14.507812 20.878906 14.507812 20.925781 14.507812 C 20.902344 14.6875 20.878906 14.867188 20.855469 15.050781 C 20.789062 15.050781 20.722656 15.050781 20.652344 15.050781 C 20.710938 14.582031 20.710938 14.582031 20.789062 14.507812 Z M 20.789062 14.507812 "/>
<path style=" stroke:none;fill-rule:nonzero;fill:rgb(81.960785%,81.960785%,81.960785%);fill-opacity:1;" d="M 28.398438 13.007812 C 28.417969 13.074219 28.441406 13.144531 28.464844 13.210938 C 28.335938 13.421875 28.164062 13.585938 27.988281 13.757812 C 27.945312 13.734375 27.898438 13.710938 27.851562 13.6875 C 28.03125 13.464844 28.210938 13.238281 28.398438 13.007812 Z M 28.398438 13.007812 "/>
<path style=" stroke:none;fill-rule:nonzero;fill:rgb(7.843138%,7.843138%,7.843138%);fill-opacity:1;" d="M 20.515625 15.460938 C 20.578125 15.636719 20.59375 15.707031 20.519531 15.886719 C 20.484375 15.945312 20.484375 15.945312 20.449219 16.003906 C 20.402344 16.003906 20.359375 16.003906 20.3125 16.003906 C 20.289062 15.695312 20.289062 15.695312 20.414062 15.539062 C 20.449219 15.515625 20.480469 15.488281 20.515625 15.460938 Z M 20.515625 15.460938 "/>
<path style=" stroke:none;fill-rule:nonzero;fill:rgb(11.764706%,11.764706%,11.764706%);fill-opacity:1;" d="M 20.175781 16.414062 C 20.199219 16.414062 20.222656 16.414062 20.246094 16.414062 C 20.246094 16.527344 20.246094 16.636719 20.246094 16.753906 C 20.109375 16.820312 20.109375 16.820312 19.972656 16.890625 C 20.023438 16.566406 20.023438 16.566406 20.175781 16.414062 Z M 20.175781 16.414062 "/>
<path style=" stroke:none;fill-rule:nonzero;fill:rgb(26.274511%,26.274511%,26.274511%);fill-opacity:1;" d="M 18.207031 21.386719 C 18.25 21.429688 18.296875 21.476562 18.34375 21.523438 C 18.316406 21.734375 18.316406 21.734375 18.273438 21.929688 C 18.230469 21.929688 18.183594 21.929688 18.136719 21.929688 C 18.128906 21.539062 18.128906 21.539062 18.207031 21.386719 Z M 18.207031 21.386719 "/>
<path style=" stroke:none;fill-rule:nonzero;fill:rgb(31.764707%,31.764707%,31.764707%);fill-opacity:1;" d="M 15.351562 16.617188 C 15.375 16.617188 15.398438 16.617188 15.421875 16.617188 C 15.4375 16.808594 15.4375 16.808594 15.421875 17.027344 C 15.285156 17.152344 15.285156 17.152344 15.148438 17.230469 C 15.214844 17.027344 15.285156 16.828125 15.351562 16.617188 Z M 15.351562 16.617188 "/>
<path style=" stroke:none;fill-rule:nonzero;fill:rgb(26.666668%,26.666668%,26.666668%);fill-opacity:1;" d="M 18.683594 20.089844 C 18.726562 20.136719 18.773438 20.179688 18.816406 20.226562 C 18.792969 20.472656 18.792969 20.472656 18.75 20.703125 C 18.683594 20.660156 18.617188 20.613281 18.546875 20.566406 C 18.589844 20.410156 18.636719 20.253906 18.683594 20.089844 Z M 18.683594 20.089844 "/>
</g>
</svg>
